HIERARCHY
ROOT Hips
{
 OFFSET 0.000000 0.000000 0.000000
 CHANNELS 6 Xposition Yposition Zposition Yrotation Xrotation Zrotation
 JOINT Chest
 {
  OFFSET 0.000000 9.585900 0.002600
  CHANNELS 3 Yrotation Xrotation Zrotation
  JOINT Chest2
  {
   OFFSET 0.000000 9.601200 -0.005300
   CHANNELS 3 Yrotation Xrotation Zrotation
   JOINT Chest3
   {
    OFFSET 0.000000 9.561800 0.000000
    CHANNELS 3 Yrotation Xrotation Zrotation
    JOINT Chest4
    {
     OFFSET 0.000000 9.552100 0.000000
     CHANNELS 3 Yrotation Xrotation Zrotation
     JOINT Neck
     {
      OFFSET 0.000000 14.453000 0.000000
      CHANNELS 3 Yrotation Xrotation Zrotation
      JOINT Head
      {
       OFFSET 0.000000 8.936500 -0.011300
       CHANNELS 3 Yrotation Xrotation Zrotation
       End Site
       {
        OFFSET 0.000000 17.073600 -0.006000
       }
      }
     }
     JOINT RightCollar
     {
      OFFSET -2.921100 9.558500 0.000000
      CHANNELS 3 Yrotation Xrotation Zrotation
      JOINT RightShoulder
      {
       OFFSET -13.519700 0.000000 0.000000
       CHANNELS 3 Yrotation Xrotation Zrotation
       JOINT RightElbow
       {
        OFFSET 0.000000 -29.696600 0.000000
        CHANNELS 3 Yrotation Xrotation Zrotation
        JOINT RightWrist
        {
         OFFSET 0.000000 -24.004700 0.000000
         CHANNELS 3 Yrotation Xrotation Zrotation
         End Site
         {
          OFFSET 0.000000 -17.728500 0.000000
         }
        }
       }
      }
     }
     JOINT LeftCollar
     {
      OFFSET 2.921100 9.558500 0.000000
      CHANNELS 3 Yrotation Xrotation Zrotation
      JOINT LeftShoulder
      {
       OFFSET 13.519700 0.000000 0.000000
       CHANNELS 3 Yrotation Xrotation Zrotation
       JOINT LeftElbow
       {
        OFFSET 0.000000 -29.696600 0.000000
        CHANNELS 3 Yrotation Xrotation Zrotation
        JOINT LeftWrist
        {
         OFFSET 0.000000 -24.004700 0.000000
         CHANNELS 3 Yrotation Xrotation Zrotation
         End Site
         {
          OFFSET 0.000000 -17.728500 0.000000
         }
        }
       }
      }
     }
    }
   }
  }
 }
 JOINT RightHip
 {
  OFFSET -7.771700 -0.012900 -0.001300
  CHANNELS 3 Yrotation Xrotation Zrotation
  JOINT RightKnee
  {
   OFFSET 0.000000 -40.869800 0.001200
   CHANNELS 3 Yrotation Xrotation Zrotation
   JOINT RightAnkle
   {
    OFFSET 0.000000 -39.717900 0.002100
    CHANNELS 3 Yrotation Xrotation Zrotation
    JOINT RightToe
    {
     OFFSET 0.000000 -4.965400 11.033500
     CHANNELS 3 Yrotation Xrotation Zrotation
     End Site
     {
      OFFSET 0.000000 -1.423100 5.872300
     }
    }
   }
  }
 }
 JOINT LeftHip
 {
  OFFSET 7.771700 -0.012900 -0.001300
  CHANNELS 3 Yrotation Xrotation Zrotation
  JOINT LeftKnee
  {
   OFFSET 0.000000 -40.869800 0.001200
   CHANNELS 3 Yrotation Xrotation Zrotation
   JOINT LeftAnkle
   {
    OFFSET 0.000000 -39.717900 0.002100
    CHANNELS 3 Yrotation Xrotation Zrotation
    JOINT LeftToe
    {
     OFFSET 0.000000 -4.965400 11.033500
     CHANNELS 3 Yrotation Xrotation Zrotation
     End Site
     {
      OFFSET 0.000000 -1.423100 5.872300
     }
    }
   }
  }
 }
}
MOTION
Frames: 16
Frame Time: 0.008333
-39.176710 57.154760 21.492044 160.009026 -11.483864 0.527452 3.810323 11.326493 1.498503 0.256690 0.851322 0.024735 0.421446 1.492372 0.043946 3.258008 10.643911 0.589100 0.830435 17.147011 -2.361773 2.337293 -3.884102 -4.646528 0.344945 8.145734 -0.413831 -1.153232 -8.872663 -11.485983 75.586091 -63.502314 -61.483100 4.698559 7.545930 -19.279681 -9.068186 8.754383 -1.322477 -3.488800 -18.172362 23.763017 -89.217848 -57.540779 73.524483 -6.727686 6.068446 15.338918 -5.289126 -61.399859 2.240570 -35.463170 72.380542 -37.998096 -2.417420 -6.570957 1.744833 -0.933745 0.970174 -0.429540 2.074569 -63.704045 14.344149 39.386671 65.182039 32.752769 -18.637718 -10.407862 4.667962 0.392536 -0.751086 0.180024
-39.205629 57.151701 21.555996 159.841159 -11.713131 0.507991 3.883851 11.631552 1.540188 0.261601 0.889090 0.025583 0.446941 1.518113 0.046102 3.250680 10.818097 0.595458 0.855570 17.121739 -2.399804 2.397689 -3.928197 -4.726359 0.387555 7.943473 -0.500821 -0.841157 -8.879034 -12.124667 74.163873 -63.923896 -59.455858 4.413140 7.329289 -19.591548 -9.140015 8.641532 -1.202800 -3.748998 -18.287284 24.262977 -88.342521 -58.414864 72.219271 -6.488505 5.821087 15.355393 -5.227274 -61.193881 2.390766 -35.333691 72.272691 -37.917566 -2.482094 -6.390846 1.733281 -0.857240 0.907146 -0.404180 2.238361 -63.510089 14.367863 39.320875 65.172217 32.736010 -18.617409 -10.455410 4.673399 0.390744 -0.750480 0.185370
-39.241115 57.144412 21.635348 159.782471 -11.835174 0.499978 3.869429 11.810540 1.548710 0.299938 0.876239 0.027734 0.419074 1.608101 0.046766 3.246439 10.982444 0.602287 0.870530 17.103521 -2.434152 2.437836 -3.959707 -4.795514 0.431553 7.750659 -0.583669 -0.509107 -8.905373 -12.772825 72.583012 -64.328419 -57.249178 4.136076 7.152385 -19.939980 -9.207290 8.521636 -1.105251 -3.935237 -18.449526 24.729094 -87.473253 -59.219681 70.837249 -6.276148 5.540572 15.366122 -5.222483 -61.083316 2.461366 -35.118062 72.169156 -37.729154 -2.535354 -6.273789 1.742421 -0.820385 0.885680 -0.406129 2.365172 -63.417289 14.325014 39.194294 65.117621 32.611022 -18.602892 -10.436645 4.709281 0.347814 -0.761058 0.178119
-39.279506 57.133507 21.726296 159.807184 -11.871257 0.496185 3.775306 11.903837 1.531822 0.287179 0.925369 0.027634 0.470741 1.568888 0.048191 3.217960 11.201280 0.613248 0.874352 17.089243 -2.465309 2.456155 -3.984584 -4.854852 0.480240 7.565137 -0.662306 -0.162566 -8.948108 -13.421179 70.916064 -64.675126 -54.948405 3.877793 7.024713 -20.316415 -9.273568 8.389183 -1.025476 -4.073765 -18.639199 25.170892 -86.731795 -59.843106 69.524850 -6.106886 5.246405 15.406283 -5.259975 -61.056669 2.479595 -34.876134 72.070984 -37.495478 -2.567866 -6.179862 1.727498 -0.791686 0.909520 -0.403976 2.452709 -63.403127 14.244255 39.037070 65.026848 32.404037 -18.564964 -10.373250 4.785635 0.264293 -0.776237 0.152159
-39.308690 57.124309 21.805771 159.752886 -11.970507 0.509560 3.766202 12.060267 1.520515 0.273894 0.973216 0.027488 0.515188 1.530696 0.048968 3.200911 11.409262 0.622680 0.867403 17.075560 -2.493330 2.453368 -4.009173 -4.904894 0.533750 7.385622 -0.736476 0.199088 -8.999693 -14.062991 69.240035 -64.934979 -52.643323 3.629169 6.957487 -20.717348 -9.348198 8.243775 -0.955609 -4.179979 -18.841011 25.591491 -86.204387 -60.230022 68.396729 -5.990681 4.956294 15.485360 -5.212090 -60.967238 2.485889 -34.642849 71.976609 -37.263408 -2.601783 -6.084450 1.703802 -0.760077 0.936393 -0.405400 2.554026 -63.313897 14.214566 38.964215 64.957482 32.276756 -18.510120 -10.368709 4.845351 0.190737 -0.778239 0.126812
-39.328098 57.116060 21.878739 159.668306 -12.099902 0.515302 3.799263 12.243883 1.527778 0.278227 0.999510 0.027894 0.513619 1.578872 0.049600 3.214885 11.543336 0.625928 0.850826 17.060112 -2.517760 2.431711 -4.037734 -4.944998 0.589853 7.210214 -0.805601 0.580252 -9.048778 -14.693722 67.644821 -65.090139 -50.433929 3.406671 6.949124 -21.155684 -9.434081 8.087389 -0.890956 -4.274058 -19.040964 25.995465 -85.918958 -60.386236 67.500817 -5.934461 4.687833 15.591625 -5.200238 -60.850242 2.561972 -34.441813 71.886254 -37.079065 -2.640076 -5.973934 1.661295 -0.721820 0.929948 -0.383900 2.714120 -63.204493 14.186134 38.854904 64.918533 32.147234 -18.481921 -10.380406 4.890341 0.139052 -0.784345 0.113648
-39.341794 57.109269 21.943253 159.630551 -12.257904 0.520460 3.813452 12.428225 1.534869 0.260594 1.048712 0.025934 0.513059 1.626178 0.052777 3.231698 11.671272 0.625735 0.827124 17.042297 -2.538439 2.395797 -4.071024 -4.975691 0.651288 7.035049 -0.866906 0.977916 -9.082215 -15.309830 66.317646 -65.120122 -48.508860 3.279945 6.999683 -21.699374 -9.526185 7.925180 -0.829049 -4.380680 -19.226732 26.388877 -85.851345 -60.355582 66.824069 -5.933862 4.465202 15.700604 -5.421319 -60.711442 2.830321 -34.281045 71.788399 -37.039547 -2.802402 -5.778483 1.571228 -0.547517 0.835489 -0.299946 2.810011 -63.060549 14.170940 38.772757 64.877987 32.026399 -18.444426 -10.458890 4.937790 0.050406 -0.684287 0.098724
-39.348104 57.102632 22.008403 159.562652 -12.391803 0.506908 3.865810 12.586643 1.566236 0.261959 1.059405 0.025672 0.501287 1.708244 0.052611 3.248670 11.792191 0.626837 0.797461 17.023203 -2.555829 2.347763 -4.107079 -4.998390 0.719052 6.856926 -0.919712 1.389833 -9.089155 -15.908545 65.537543 -64.992896 -47.163351 3.276357 7.094724 -22.449616 -9.628127 7.761792 -0.769795 -4.511709 -19.389486 26.775772 -85.922788 -60.184239 66.300568 -5.968093 4.297705 15.790272 -5.645522 -60.569918 3.123746 -34.086100 71.683895 -36.943606 -2.865458 -5.703917 1.511741 -0.466176 0.848861 -0.266292 2.879434 -62.936699 14.222801 38.699243 64.837379 31.905933 -18.392940 -10.474619 4.992058 -0.004918 -0.713996 0.069772
-39.350174 57.097596 22.068344 159.508696 -12.526773 0.487247 3.880146 12.764063 1.592006 0.287821 1.050456 0.028450 0.481113 1.864243 0.046552 3.286604 11.832957 0.628410 0.762144 17.003509 -2.570013 2.288202 -4.144724 -5.013334 0.793213 6.676930 -0.964988 1.822292 -9.067919 -16.487348 65.492005 -64.677459 -46.618299 3.323228 7.175052 -23.433009 -9.747384 7.597596 -0.714098 -4.673271 -19.521793 27.156977 -86.035956 -59.908612 65.847715 -6.010183 4.180349 15.844488 -5.928163 -60.416511 3.457286 -33.901081 71.575676 -36.867371 -2.944732 -5.652374 1.458671 -0.371829 0.871560 -0.237421 2.940359 -62.812354 14.282713 38.609793 64.802247 31.772836 -18.372646 -10.471961 5.056062 -0.018171 -0.755996 0.034315
-39.353447 57.095882 22.114951 159.525207 -12.697344 0.488098 3.840477 12.978948 1.586153 0.280235 1.137246 0.019104 0.504470 1.864248 0.053153 3.302978 11.925973 0.634122 0.722006 16.983920 -2.581643 2.218932 -4.182482 -5.021955 0.873950 6.497117 -1.003976 2.279919 -9.021186 -17.044180 66.132092 -64.176072 -46.839756 3.347980 7.201176 -24.562136 -9.882579 7.432279 -0.663174 -4.873792 -19.618434 27.532631 -86.093766 -59.567089 65.378644 -6.036659 4.099861 15.853850 -6.154832 -60.228498 3.642907 -33.741252 71.512333 -36.805675 -2.966469 -5.654515 1.438238 -0.336687 0.915729 -0.238379 2.977523 -62.646106 14.280781 38.542947 64.762221 31.655238 -18.360683 -10.469944 5.089894 -0.027807 -0.772882 0.028145
-39.356133 57.095952 22.157099 159.536360 -12.855629 0.489944 3.804286 13.209179 1.565913 0.302807 1.096378 0.034879 0.508210 1.884141 0.053678 3.317040 12.088612 0.640214 0.678168 16.966272 -2.592057 2.142330 -4.216949 -5.026911 0.957024 6.321336 -1.039233 2.766699 -8.953169 -17.576265 67.181827 -63.513791 -47.551784 3.335337 7.186275 -25.730453 -10.030450 7.267547 -0.618711 -5.116789 -19.680144 27.902831 -86.010338 -59.199004 64.808677 -6.035900 4.034998 15.816428 -6.254700 -60.054844 3.686838 -33.567419 71.470676 -36.656108 -2.926755 -5.657257 1.436705 -0.361983 0.949140 -0.261676 3.026446 -62.493848 14.270940 38.493465 64.724617 31.552447 -18.305877 -10.455653 5.124817 -0.105216 -0.771470 0.024633
-39.356667 57.094141 22.212046 159.454670 -12.905383 0.463195 3.892553 13.282365 1.605494 0.304331 1.100089 0.039528 0.518169 1.966314 0.049496 3.326123 12.175726 0.649420 0.632057 16.952138 -2.601593 2.060949 -4.245085 -5.029120 1.040087 6.154108 -1.072514 3.283924 -8.870319 -18.080824 68.308675 -62.717382 -48.426000 3.281599 7.144707 -26.855547 -10.189819 7.104249 -0.581358 -5.400908 -19.712295 28.268608 -85.728087 -58.834565 64.074563 -6.006844 3.974991 15.735168 -6.282102 -59.983383 3.733759 -33.360302 71.383733 -36.332804 -2.903127 -5.599127 1.320835 -0.309060 0.966671 -0.252821 3.094973 -62.454133 14.346863 38.446549 64.691086 31.456759 -18.246936 -10.452365 5.165961 -0.193648 -0.762482 0.014224
-39.356340 57.095333 22.255791 159.394153 -12.983268 0.439296 3.962153 13.375815 1.641779 0.302875 1.130423 0.037492 0.531364 2.017165 0.051925 3.332633 12.261629 0.659740 0.584723 16.941812 -2.609596 1.976592 -4.266176 -5.027941 1.123151 5.993523 -1.105376 3.826994 -8.774077 -18.554555 69.239237 -61.845577 -49.185562 3.164390 7.052520 -27.928805 -10.354131 6.943088 -0.549393 -5.728225 -19.719764 28.632747 -85.224260 -58.488085 63.149958 -5.959824 3.918766 15.616832 -6.284216 -59.892602 3.757285 -33.274013 71.330070 -36.149326 -2.863010 -5.628076 1.255441 -0.286670 1.033227 -0.260561 3.166984 -62.388836 14.398946 38.396468 64.663890 31.367412 -18.183774 -10.369305 5.210617 -0.252947 -0.922255 -0.038475
-39.361164 57.098962 22.287351 159.399742 -13.082703 0.446192 3.955144 13.485042 1.634652 0.313033 1.161799 0.037928 0.531536 2.044393 0.052591 3.339348 12.365130 0.668979 0.537394 16.934651 -2.615323 1.891327 -4.281494 -5.022652 1.158406 5.831720 -1.126075 4.435521 -8.660025 -19.007513 69.752773 -61.033028 -49.609690 2.977446 6.885954 -29.047945 -10.514472 6.786235 -0.518500 -6.098901 -19.704504 28.995919 -84.511999 -58.161163 62.046853 -5.914164 3.863984 15.468980 -6.376976 -59.769660 3.734727 -33.014654 71.314905 -35.845522 -2.784106 -5.654353 1.206265 -0.330615 1.075183 -0.280956 3.268162 -62.304778 14.344799 38.347365 64.645536 31.285362 -18.158192 -10.321592 5.245696 -0.305070 -0.979552 -0.052528
-39.357244 57.106130 22.304715 159.387374 -13.244725 0.432994 3.971920 13.648522 1.656850 0.313427 1.190989 0.036276 0.539415 2.070904 0.056507 3.342167 12.463980 0.677105 0.490559 16.930617 -2.619358 1.806248 -4.291061 -5.014285 1.268302 5.686176 -1.165389 4.968106 -8.549306 -19.393759 69.761995 -60.451691 -49.624468 2.766980 6.678585 -30.244055 -10.667309 6.633620 -0.484820 -6.506729 -19.666333 29.355192 -83.622890 -57.853885 60.791877 -5.884908 3.820089 15.298070 -6.516073 -59.580192 3.788221 -32.793784 71.304043 -35.595765 -2.734095 -5.665226 1.124242 -0.344048 1.090348 -0.265348 3.311168 -62.157339 14.360253 38.291556 64.647147 31.227139 -18.134582 -10.294837 5.248729 -0.327197 -1.029868 -0.059691
-39.353265 57.113524 22.318505 159.390502 -13.389978 0.421151 3.971319 13.789950 1.674179 0.320830 1.217311 0.035156 0.537776 2.096626 0.061501 3.340001 12.557262 0.684626 0.444531 16.930050 -2.623483 1.722586 -4.294044 -5.006062 1.379035 5.550449 -1.207939 5.488965 -8.435087 -19.737626 69.352454 -60.155947 -49.310285 2.533043 6.467163 -31.420141 -10.810413 6.482867 -0.446866 -6.946310 -19.607363 29.705491 -82.582903 -57.551179 59.404288 -5.872427 3.784107 15.113233 -6.622472 -59.415235 3.817574 -32.659954 71.296909 -35.412598 -2.747456 -5.670115 1.044796 -0.293531 1.092761 -0.246311 3.297617 -62.017314 14.392202 38.281797 64.638905 31.194216 -18.077735 -10.273336 5.259306 -0.380515 -1.072108 -0.081941
